<?xml version="1.0" standalone="no"?>
<!DOCTYPE svg PUBLIC "-//W3C//DTD SVG 20010904//EN"
 "http://www.w3.org/TR/2001/REC-SVG-20010904/DTD/svg10.dtd">
<svg version="1.0" xmlns="http://www.w3.org/2000/svg"
 width="900.000000pt" height="551.000000pt" viewBox="0 0 900.000000 551.000000"
 preserveAspectRatio="xMidYMid meet">

<g transform="translate(0.000000,551.000000) scale(0.100000,-0.100000)"
fill="#000000" stroke="none">
<path d="M0 2755 l0 -2755 4500 0 4500 0 0 2755 0 2755 -4500 0 -4500 0 0
-2755z m4987 -1581 c-3 -3 -12 -4 -19 -1 -8 3 -5 6 6 6 11 1 17 -2 13 -5z
m-52 -45 c0 -7 40 -12 98 -15 56 -2 96 0 93 5 -3 5 1 15 10 22 14 11 19 10 34
-9 11 -13 29 -22 47 -22 16 0 34 -5 40 -11 8 -8 13 -5 18 11 7 22 30 23 30 0
0 -14 35 -31 48 -23 4 2 7 -5 7 -17 0 -12 4 -18 11 -15 6 4 8 13 5 21 -8 20
10 26 24 9 9 -11 9 -15 1 -15 -7 0 -9 -4 -6 -10 12 -19 33 -11 28 10 -6 24 10
26 28 3 10 -11 10 -14 2 -9 -7 4 -13 2 -13 -3 0 -6 18 -11 40 -11 22 0 40 -4
40 -10 0 -5 13 -10 29 -10 16 0 31 -6 34 -12 8 -22 20 0 13 25 -5 21 -11 24
-45 22 -22 -1 -38 2 -35 7 10 15 81 9 88 -8 5 -13 18 -14 85 -9 57 6 80 4 86
-5 4 -7 2 -16 -6 -20 -9 -6 -4 -11 17 -15 16 -4 35 -9 43 -11 10 -3 12 3 6 23
-6 27 -6 27 8 8 9 -11 13 -23 11 -27 -6 -9 4 -14 41 -22 17 -4 26 -3 20 1 -13
10 -19 43 -8 43 14 0 40 -35 35 -48 -2 -7 0 -12 5 -13 4 0 16 -2 26 -4 9 -2
15 0 13 3 -2 4 22 7 55 7 41 0 59 -4 59 -12 0 -7 5 -13 10 -13 6 0 10 -7 10
-15 0 -20 10 -19 26 3 7 9 14 12 14 6 0 -17 74 -44 117 -44 39 0 123 -46 123
-67 0 -7 5 -13 10 -13 6 0 10 5 10 10 0 23 58 9 88 -21 16 -17 36 -29 45 -27
8 2 24 -8 35 -22 17 -20 23 -23 33 -12 7 6 22 12 32 12 17 0 18 -2 6 -16 -13
-15 -11 -17 19 -12 23 3 36 0 39 -9 3 -7 20 -13 39 -13 21 0 34 -5 34 -13 0
-7 14 -18 31 -24 24 -9 30 -17 26 -32 -7 -28 22 -36 40 -11 27 38 62 13 64
-47 2 -30 3 -32 6 -10 2 15 10 27 16 27 7 0 6 4 -3 10 -8 5 -11 12 -7 16 10
11 58 -45 50 -59 -22 -36 -38 -46 -65 -40 -18 4 -28 1 -28 -7 0 -8 18 -11 60
-8 57 3 60 2 60 -19 0 -15 -6 -23 -17 -23 -14 0 -14 -3 -5 -12 13 -13 15 -11
41 31 11 19 27 7 39 -29 9 -24 8 -30 -3 -30 -7 0 -16 -9 -20 -19 -5 -18 -8
-17 -38 10 -17 16 -41 29 -52 29 -17 -1 -15 -5 14 -32 l35 -31 -35 5 c-20 4
-42 2 -50 -3 -10 -6 -10 -9 -1 -9 6 0 12 -7 12 -17 0 -14 -2 -14 -21 3 -20 18
-21 18 -35 0 -11 -16 -16 -17 -29 -6 -10 8 -15 9 -15 1 0 -6 -9 -11 -20 -11
-11 0 -27 -12 -37 -26 -13 -21 -23 -25 -50 -22 -28 3 -33 1 -33 -17 -1 -19 -1
-19 -12 -1 -11 19 -11 19 -25 0 -14 -19 -14 -19 -29 0 -14 19 -14 19 -14 -1 0
-19 -4 -21 -39 -16 -32 4 -39 2 -43 -15 -4 -14 -1 -22 11 -25 9 -2 -7 -7 -36
-11 -29 -4 -56 -5 -62 -2 -5 4 -12 2 -16 -4 -3 -5 -15 -10 -26 -10 -13 0 -18
-5 -14 -12 4 -7 0 -5 -9 6 -11 14 -22 17 -42 12 -20 -5 -24 -10 -15 -19 8 -8
6 -14 -11 -24 -21 -11 -20 -12 20 -13 23 0 42 -4 42 -10 0 -5 -61 -9 -152 -8
-242 1 -378 -3 -378 -13 0 -5 -19 -6 -42 -4 -85 10 -208 13 -208 5 0 -4 -22
-5 -50 -2 -33 3 -50 1 -50 -7 0 -7 -27 -11 -80 -11 -83 0 -115 -19 -37 -22
l42 -1 -42 -4 c-24 -2 -43 -8 -43 -14 0 -5 -25 -9 -55 -9 -30 0 -55 5 -55 10
0 16 -36 12 -51 -6 -8 -10 -22 -14 -41 -10 -15 3 -30 0 -34 -6 -5 -8 -56 -9
-174 -5 -112 4 -170 3 -178 -5 -5 -5 -16 -7 -23 -2 -7 4 -40 9 -73 11 -34 2
-79 4 -101 6 -22 1 -47 6 -55 12 -8 5 -48 9 -88 10 -59 0 -76 4 -83 18 -12 21
-29 22 -29 2 0 -22 -19 -18 -57 11 -31 24 -37 25 -65 13 -25 -10 -31 -10 -39
2 -8 12 -10 12 -18 -1 -6 -8 -13 -11 -18 -7 -4 4 -2 17 5 27 7 11 8 20 3 20
-5 0 -11 -5 -13 -11 -3 -8 -15 -9 -37 -4 -24 5 -30 10 -20 16 19 12 -5 19 -61
18 -25 0 -65 1 -90 4 -81 9 -215 27 -226 31 -6 2 -17 0 -24 -4 -8 -5 -18 -6
-23 -3 -5 3 -3 9 4 14 7 4 10 11 6 15 -3 4 -13 2 -20 -4 -10 -9 -30 -8 -78 0
-35 7 -88 11 -118 10 -30 -2 -68 2 -85 7 -17 6 -84 13 -148 16 -65 3 -128 10
-140 15 -16 7 2 8 60 4 45 -3 82 -4 82 -1 0 9 -135 29 -205 30 -67 0 -68 1
-12 4 53 4 57 6 57 28 0 22 4 25 40 25 29 0 40 4 40 15 0 18 -20 20 -20 3 -1
-9 -4 -8 -13 2 -8 11 -30 15 -72 14 -58 -2 -58 -1 -15 6 44 7 44 7 -22 10 -38
1 -72 4 -78 5 -5 1 -25 3 -42 5 l-33 2 29 12 28 13 -32 7 c-18 3 -44 6 -57 6
-22 0 -24 2 -12 16 8 10 15 12 17 5 4 -13 32 -15 32 -2 0 13 -7 16 -67 34 -46
14 -55 14 -67 1 -19 -18 -22 -18 -47 7 l-20 20 20 6 c14 3 21 13 21 28 0 41
11 55 41 55 21 0 29 5 29 18 0 9 7 26 16 37 12 16 16 17 23 6 5 -8 16 -11 25
-8 29 11 17 27 -21 28 l-38 1 35 10 c19 5 49 16 67 23 24 11 33 11 37 2 3 -8
14 -2 30 16 21 22 33 27 75 27 30 0 51 -5 54 -12 4 -9 8 -9 14 -3 18 22 55 37
63 25 4 -7 13 -2 24 15 14 21 20 24 36 15 16 -8 20 -8 20 3 0 10 8 13 24 10
18 -4 26 0 31 16 3 12 14 21 24 21 10 0 31 10 46 21 22 18 29 20 36 8 8 -11
15 -7 38 19 28 33 54 36 65 6 3 -8 10 -14 16 -14 14 0 13 27 -2 33 -15 5 -6
18 14 21 7 1 19 5 27 10 8 5 16 4 20 -3 5 -8 22 -9 51 -5 37 6 41 9 27 19 -22
16 -22 29 1 20 49 -19 105 -22 110 -5 2 6 10 10 18 10 8 0 14 4 14 9 0 8 66
18 135 21 73 4 105 12 106 28 0 10 6 5 14 -13 9 -19 14 -24 15 -12 0 9 5 17
10 17 6 0 10 -8 11 -17 0 -14 3 -12 9 5 8 19 13 21 29 12 11 -5 30 -9 43 -9
19 1 18 3 -7 9 l-30 8 35 2 c19 1 46 3 60 3 17 2 25 7 24 20 -1 12 4 17 15 14
9 -2 15 -9 13 -15 -3 -15 45 -16 54 0 5 7 3 8 -6 3 -9 -6 -11 -4 -5 4 4 8 17
10 31 7 17 -5 24 -2 24 9 0 8 9 15 20 15 11 0 20 -5 20 -11 0 -16 28 -40 34
-30 4 5 0 11 -6 13 -8 3 -5 9 9 16 23 13 53 7 53 -11 0 -6 6 -3 13 6 19 26
115 26 134 1 13 -18 15 -18 24 -1 7 11 22 17 44 17 26 0 35 -4 36 -17 1 -16 2
-16 6 -1 2 9 11 19 19 22 18 7 46 -3 39 -14 -3 -5 -1 -11 5 -15 5 -3 10 -1 10
5 0 7 6 8 19 0 25 -13 41 -13 21 0 -12 8 -10 10 10 10 14 0 34 7 44 15 20 15
41 7 41 -16z m105 11 c0 -5 -18 -10 -40 -10 -22 0 -40 5 -40 10 0 6 18 10 40
10 22 0 40 -4 40 -10z m425 -10 c3 -5 -1 -10 -9 -10 -9 0 -16 5 -16 10 0 6 4
10 9 10 6 0 13 -4 16 -10z m-2055 -150 c0 -5 -4 -10 -10 -10 -5 0 -10 5 -10
10 0 6 5 10 10 10 6 0 10 -4 10 -10z m-130 -70 c0 -5 -5 -10 -11 -10 -5 0 -7
5 -4 10 3 6 8 10 11 10 2 0 4 -4 4 -10z m-703 -299 c-3 -15 1 -21 16 -23 12
-2 23 -11 25 -20 5 -29 -33 -22 -46 7 -15 33 -15 55 -1 55 6 0 9 -9 6 -19z
m63 -2 c0 -11 -4 -17 -10 -14 -5 3 -10 13 -10 21 0 8 5 14 10 14 6 0 10 -9 10
-21z m-80 -69 c0 -5 -7 -7 -15 -4 -8 4 -15 8 -15 10 0 2 7 4 15 4 8 0 15 -4
15 -10z m95 -60 c3 -5 1 -10 -4 -10 -6 0 -11 5 -11 10 0 6 2 10 4 10 3 0 8 -4
11 -10z m4213 -197 c-10 -2 -26 -2 -35 0 -10 3 -2 5 17 5 19 0 27 -2 18 -5z
m-95 -10 c-7 -2 -21 -2 -30 0 -10 3 -4 5 12 5 17 0 24 -2 18 -5z m-2936 -109
c-3 -3 -12 -4 -19 -1 -8 3 -5 6 6 6 11 1 17 -2 13 -5z m243 -44 c0 -5 -7 -10
-16 -10 -8 0 -12 5 -9 10 3 6 10 10 16 10 5 0 9 -4 9 -10z"/>
<path d="M5710 1025 l-35 -13 37 2 c23 0 38 6 38 14 0 6 -1 12 -2 11 -2 0 -19
-6 -38 -14z"/>
<path d="M3778 1023 c6 -2 18 -2 25 0 6 3 1 5 -13 5 -14 0 -19 -2 -12 -5z"/>
<path d="M5842 970 c0 -14 2 -19 5 -12 2 6 2 18 0 25 -3 6 -5 1 -5 -13z"/>
<path d="M6288 863 c7 -3 16 -2 19 1 4 3 -2 6 -13 5 -11 0 -14 -3 -6 -6z"/>
<path d="M6305 830 c3 -5 8 -10 11 -10 2 0 4 5 4 10 0 6 -5 10 -11 10 -5 0 -7
-4 -4 -10z"/>
<path d="M2785 640 c-3 -5 -1 -10 4 -10 6 0 11 5 11 10 0 6 -2 10 -4 10 -3 0
-8 -4 -11 -10z"/>
<path d="M2680 600 c0 -5 5 -10 10 -10 6 0 10 5 10 10 0 6 -4 10 -10 10 -5 0
-10 -4 -10 -10z"/>
<path d="M6960 485 c0 -8 7 -15 15 -15 8 0 15 7 15 15 0 8 -7 15 -15 15 -8 0
-15 -7 -15 -15z"/>
<path d="M7060 460 c0 -5 5 -10 10 -10 6 0 10 5 10 10 0 6 -4 10 -10 10 -5 0
-10 -4 -10 -10z"/>
<path d="M6945 410 c-3 -5 -1 -10 4 -10 6 0 11 5 11 10 0 6 -2 10 -4 10 -3 0
-8 -4 -11 -10z"/>
<path d="M6868 383 c6 -2 18 -2 25 0 6 3 1 5 -13 5 -14 0 -19 -2 -12 -5z"/>
<path d="M6685 337 c-4 -10 -5 -21 -1 -24 10 -10 18 4 13 24 -4 17 -4 17 -12
0z"/>
<path d="M4088 153 c7 -3 16 -2 19 1 4 3 -2 6 -13 5 -11 0 -14 -3 -6 -6z"/>
<path d="M5260 80 c0 -5 5 -10 10 -10 6 0 10 5 10 10 0 6 -4 10 -10 10 -5 0
-10 -4 -10 -10z"/>
<path d="M5315 70 c-18 -8 -17 -9 7 -9 15 -1 30 4 33 9 7 12 -12 12 -40 0z"/>
</g>
</svg>
